<svg width="29" height="28" viewBox="0 0 29 28" fill="none" xmlns="http://www.w3.org/2000/svg">
<path fill-rule="evenodd" clip-rule="evenodd" d="M3.91419 2.21292C2.64122 2.84941 1.54199 3.88026 1.54199 5.26249V18.3689C1.54199 19.7511 2.64107 20.782 3.91407 21.4185C5.23602 22.0795 7.00499 22.4646 8.91433 22.4646C10.1925 22.4646 11.406 22.292 12.464 21.9807V22.7377C12.464 24.1199 13.5631 25.1508 14.8361 25.7873C16.158 26.4483 17.927 26.8334 19.8363 26.8334C21.7457 26.8334 23.5146 26.4483 24.8366 25.7873C26.1096 25.1508 27.2087 24.1199 27.2087 22.7377V14.0001C27.2087 12.6179 26.1094 11.587 24.8365 10.9505C23.5145 10.2895 21.7455 9.90434 19.8363 9.90434C18.5085 9.90434 17.2484 10.0907 16.1594 10.4265C16.2417 10.176 16.2867 9.91086 16.2867 9.63129V5.26249C16.2867 3.88026 15.1874 2.84941 13.9145 2.21292C12.5925 1.55194 10.8235 1.16675 8.91433 1.16675C7.00512 1.16675 5.23616 1.55194 3.91419 2.21292ZM4.64686 3.67826C3.54805 4.22767 3.18029 4.83511 3.18029 5.26249C3.18029 5.68988 3.54805 6.29732 4.64686 6.84673C5.69668 7.37164 7.20431 7.71994 8.91433 7.71994C10.6244 7.71994 12.132 7.37164 13.1818 6.84673C14.2806 6.29732 14.6484 5.68988 14.6484 5.26249C14.6484 4.83511 14.2806 4.22767 13.1818 3.67826C12.132 3.15335 10.6244 2.80505 8.91433 2.80505C7.20431 2.80505 5.69668 3.15335 4.64686 3.67826ZM12.5912 13.2049C11.5022 13.5407 10.2422 13.727 8.91433 13.727C7.00499 13.727 5.23602 13.3419 3.91407 12.6809C3.66011 12.5539 3.41306 12.4113 3.18029 12.2532V14.0001C3.18029 14.4276 3.54803 15.035 4.64674 15.5844C5.6965 16.1093 7.20413 16.4575 8.91433 16.4575C10.2636 16.4575 11.489 16.2397 12.464 15.8882V14.0001C12.464 13.7205 12.5089 13.4554 12.5912 13.2049ZM14.1023 16.6219V18.3689C14.1023 18.7964 14.47 19.4038 15.5687 19.9532C16.6185 20.4781 18.1261 20.8263 19.8363 20.8263C21.5465 20.8263 23.0541 20.4781 24.1039 19.9532C25.2026 19.4038 25.5704 18.7964 25.5704 18.3689V16.6219C25.3375 16.78 25.0905 16.9227 24.8365 17.0497C23.5145 17.7106 21.7455 18.0958 19.8363 18.0958C17.9271 18.0958 16.1581 17.7106 14.8362 17.0497C14.5822 16.9227 14.3351 16.78 14.1023 16.6219ZM25.5704 14.0001C25.5704 14.4275 25.2026 15.0349 24.1038 15.5843C23.054 16.1092 21.5463 16.4575 19.8363 16.4575C18.1263 16.4575 16.6187 16.1092 15.5688 15.5843C14.47 15.0349 14.1023 14.4275 14.1023 14.0001C14.1023 13.5727 14.47 12.9653 15.5688 12.4158C16.6187 11.8909 18.1263 11.5426 19.8363 11.5426C21.5463 11.5426 23.054 11.8909 24.1038 12.4158C25.2026 12.9653 25.5704 13.5727 25.5704 14.0001ZM12.464 17.6109V20.2582C11.4899 20.6092 10.264 20.8263 8.91433 20.8263C7.20413 20.8263 5.6965 20.4781 4.64674 19.9532C3.54803 19.4038 3.18029 18.7964 3.18029 18.3689V16.622C3.41306 16.7801 3.66011 16.9227 3.91407 17.0497C5.23602 17.7107 7.00499 18.0958 8.91433 18.0958C10.1931 18.0958 11.4061 17.9225 12.464 17.6109ZM14.1023 22.7377V20.9908C14.3351 21.1488 14.5821 21.2915 14.8361 21.4185C16.158 22.0795 17.927 22.4646 19.8363 22.4646C21.7457 22.4646 23.5146 22.0795 24.8366 21.4185C25.0905 21.2915 25.3376 21.1488 25.5704 20.9908V22.7377C25.5704 23.1652 25.2026 23.7726 24.1039 24.322C23.0541 24.8468 21.5465 25.1951 19.8363 25.1951C18.1261 25.1951 16.6185 24.8468 15.5687 24.322C14.47 23.7726 14.1023 23.1652 14.1023 22.7377ZM14.6484 9.63129V7.8843C14.4156 8.04236 14.1685 8.18506 13.9145 8.31207C12.5925 8.97305 10.8235 9.35824 8.91433 9.35824C7.00512 9.35824 5.23616 8.97305 3.91419 8.31207C3.66019 8.18506 3.41311 8.04236 3.18029 7.8843V9.63129C3.18029 10.0588 3.54803 10.6662 4.64674 11.2156C5.6965 11.7405 7.20413 12.0887 8.91433 12.0887C10.6245 12.0887 12.1322 11.7405 13.1819 11.2156C14.2806 10.6662 14.6484 10.0588 14.6484 9.63129Z" fill="#666666"/>
</svg>
