<svg width="31" height="28" viewBox="0 0 31 28" fill="none" xmlns="http://www.w3.org/2000/svg">
<path fill-rule="evenodd" clip-rule="evenodd" d="M8.83301 16C8.83301 12.3181 11.8178 9.33329 15.4997 9.33329C19.1816 9.33329 22.1663 12.3181 22.1663 16C22.1663 19.6819 19.1816 22.6666 15.4997 22.6666C11.8178 22.6666 8.83301 19.6819 8.83301 16ZM15.4997 11.0724C12.7783 11.0724 10.5721 13.2786 10.5721 16C10.5721 18.7214 12.7783 20.9275 15.4997 20.9275C18.2211 20.9275 20.4272 18.7214 20.4272 16C20.4272 13.2786 18.2211 11.0724 15.4997 11.0724Z" fill="white"/>
<path d="M7.49967 9.33329C7.49967 10.0697 6.90272 10.6666 6.16634 10.6666C5.42996 10.6666 4.83301 10.0697 4.83301 9.33329C4.83301 8.59691 5.42996 7.99996 6.16634 7.99996C6.90272 7.99996 7.49967 8.59691 7.49967 9.33329Z" fill="white"/>
<path fill-rule="evenodd" clip-rule="evenodd" d="M10.9761 1.08086C11.1497 0.822069 11.442 0.666626 11.755 0.666626H19.2444C19.5574 0.666626 19.8497 0.822069 20.0233 1.08086L22.2418 4.38756H26.7337C27.6441 4.38756 28.5172 4.74691 29.1609 5.38657C29.8047 6.02623 30.1663 6.89379 30.1663 7.79841V23.9224C30.1663 24.8271 29.8047 25.6946 29.1609 26.3343C28.5172 26.9739 27.6441 27.3333 26.7337 27.3333H4.26563C3.35524 27.3333 2.48214 26.9739 1.8384 26.3343C1.19466 25.6946 0.833008 24.8271 0.833008 23.9224V7.79841C0.833008 6.8938 1.19466 6.02623 1.8384 5.38657C2.48214 4.74691 3.35524 4.38756 4.26563 4.38756H8.75752L10.9761 1.08086ZM12.256 2.52709L10.0375 5.83379C9.86385 6.09258 9.57155 6.24802 9.25854 6.24802H4.26563C3.85182 6.24802 3.45495 6.41137 3.16234 6.70212C2.86973 6.99287 2.70535 7.38722 2.70535 7.79841V23.9224C2.70535 24.3336 2.86973 24.728 3.16234 25.0187C3.45495 25.3095 3.85182 25.4728 4.26563 25.4728H26.7337C27.1475 25.4728 27.5444 25.3095 27.837 25.0187C28.1296 24.728 28.294 24.3336 28.294 23.9224V7.79841C28.294 7.38722 28.1296 6.99287 27.837 6.70212C27.5444 6.41137 27.1475 6.24802 26.7337 6.24802H21.7408C21.4278 6.24802 21.1355 6.09258 20.9619 5.83379L18.7433 2.52709H12.256Z" fill="white"/>
</svg>
