<svg width="31" height="30" viewBox="0 0 31 30" fill="none" xmlns="http://www.w3.org/2000/svg">
<path fill-rule="evenodd" clip-rule="evenodd" d="M15.4997 6.85189C13.6039 6.85189 12.067 8.45703 12.067 10.4371C12.067 12.4171 13.6039 14.0223 15.4997 14.0223C17.3955 14.0223 18.9323 12.4171 18.9323 10.4371C18.9323 8.45703 17.3955 6.85189 15.4997 6.85189ZM13.9394 10.4371C13.9394 9.53706 14.638 8.80745 15.4997 8.80745C16.3614 8.80745 17.06 9.53706 17.06 10.4371C17.06 11.3371 16.3614 12.0667 15.4997 12.0667C14.638 12.0667 13.9394 11.3371 13.9394 10.4371Z" fill="white"/>
<path fill-rule="evenodd" clip-rule="evenodd" d="M12.1659 0.873876C12.3245 0.542621 12.6486 0.333374 13.0032 0.333374H17.9961C18.3507 0.333374 18.6749 0.542621 18.8335 0.873876L19.8229 2.94078H22.989C23.5684 2.94078 24.124 3.18115 24.5336 3.60901C24.9433 4.03687 25.1734 4.61718 25.1734 5.22226V14.8263C26.4731 15.2877 27.5949 15.8555 28.4414 16.5231C29.4159 17.2916 30.1663 18.3124 30.1663 19.5633C30.1663 20.8491 29.3729 21.8891 28.3564 22.6652C27.3226 23.4544 25.8975 24.1028 24.246 24.5981C23.749 24.7471 23.2305 24.4471 23.0878 23.9281C22.9451 23.4091 23.2323 22.8675 23.7293 22.7185C25.2645 22.2581 26.4607 21.6901 27.2515 21.0864C28.0595 20.4695 28.294 19.9398 28.294 19.5633C28.294 19.1951 28.0727 18.6827 27.3131 18.0837C26.7303 17.624 25.9109 17.1824 24.8813 16.7918C24.7865 16.9633 24.67 17.1227 24.5336 17.2651C24.124 17.693 23.5684 17.9334 22.989 17.9334H8.01031C7.43097 17.9334 6.87536 17.693 6.46571 17.2651C6.32931 17.1227 6.21281 16.9633 6.11808 16.7918C5.08841 17.1824 4.26908 17.624 3.68623 18.0837C2.92666 18.6827 2.70535 19.1951 2.70535 19.5633C2.70535 19.8911 2.87734 20.3298 3.45851 20.8517C4.03663 21.3708 4.92795 21.8826 6.11074 22.3318C8.46862 23.2273 11.788 23.8004 15.4997 23.8004C15.5785 23.8004 15.6571 23.8001 15.7355 23.7995L13.5895 21.5581C13.2239 21.1763 13.2239 20.5572 13.5895 20.1753C13.9551 19.7935 14.5478 19.7935 14.9134 20.1753L18.6581 24.0864C19.0237 24.4683 19.0237 25.0874 18.6581 25.4692L14.9134 29.3803C14.5478 29.7622 13.9551 29.7622 13.5895 29.3803C13.2239 28.9985 13.2239 28.3794 13.5895 27.9975L15.7365 25.7551C15.6577 25.7557 15.5788 25.7559 15.4997 25.7559C11.6284 25.7559 8.0825 25.1615 5.47088 24.1696C4.16891 23.6751 3.04942 23.0632 2.23791 22.3346C1.42946 21.6086 0.833008 20.6755 0.833008 19.5633C0.833008 18.3124 1.58344 17.2916 2.55797 16.5231C3.40448 15.8555 4.5262 15.2877 5.82592 14.8263V5.22226C5.82592 4.61718 6.05606 4.03687 6.46571 3.60901C6.87536 3.18115 7.43097 2.94078 8.01031 2.94078H11.1764L12.1659 0.873876ZM23.3011 5.22226V15.5181C23.3009 15.5276 23.3008 15.5371 23.3009 15.5466C23.3009 15.5521 23.301 15.5575 23.3011 15.5629V15.6519C23.3011 15.7383 23.2682 15.8212 23.2097 15.8824C23.1512 15.9435 23.0718 15.9778 22.989 15.9778H8.01031C7.92755 15.9778 7.84818 15.9435 7.78966 15.8824C7.73113 15.8212 7.69826 15.7383 7.69826 15.6519V15.5628C7.69858 15.548 7.69859 15.5331 7.69826 15.5181V5.22226C7.69826 5.13582 7.73113 5.05292 7.78966 4.9918C7.84818 4.93068 7.92755 4.89634 8.01031 4.89634H11.755C12.1096 4.89634 12.4337 4.68709 12.5923 4.35583L13.5818 2.28893H17.4175L18.407 4.35583C18.5656 4.68709 18.8898 4.89634 19.2444 4.89634H22.989C23.0718 4.89634 23.1512 4.93068 23.2097 4.9918C23.2682 5.05292 23.3011 5.13582 23.3011 5.22226Z" fill="white"/>
</svg>
