<svg width="31" height="29" viewBox="0 0 31 29" fill="none" xmlns="http://www.w3.org/2000/svg">
<path fill-rule="evenodd" clip-rule="evenodd" d="M22.2437 4.38762H22.2418L20.0233 1.08092C19.8497 0.82213 19.5574 0.666687 19.2444 0.666687H11.755C11.442 0.666687 11.1497 0.82213 10.9761 1.08092L8.75752 4.38762H4.26563C3.35524 4.38762 2.48214 4.74697 1.8384 5.38663C1.19466 6.02629 0.833008 6.89386 0.833008 7.79847V23.9225C0.833008 24.2932 0.893751 24.6578 1.00976 25.0029L2.70535 23.3567V7.79847C2.70535 7.38728 2.86973 6.99293 3.16234 6.70218C3.45495 6.41143 3.85182 6.24808 4.26563 6.24808H9.25854C9.57155 6.24808 9.86385 6.09264 10.0375 5.83385L12.256 2.52715H18.7433L20.8799 5.71171L22.2437 4.38762ZM16.9798 9.49823C16.5037 9.39032 16.0084 9.33335 15.4997 9.33335C11.8178 9.33335 8.83301 12.3181 8.83301 16C8.83301 16.4403 8.87569 16.8706 8.95715 17.2871L10.5805 15.7111C10.7273 13.1715 12.7975 11.1477 15.3561 11.0745L16.9798 9.49823ZM21.4527 12.9958L20.1217 14.288C20.3193 14.8213 20.4272 15.398 20.4272 16C20.4272 18.7214 18.2211 20.9276 15.4997 20.9276C14.8462 20.9276 14.2225 20.8004 13.6518 20.5694L12.3209 21.8615C13.2658 22.375 14.3487 22.6667 15.4997 22.6667C19.1816 22.6667 22.1663 19.6819 22.1663 16C22.1663 14.9193 21.9092 13.8986 21.4527 12.9958ZM8.60116 25.4729H26.7337C27.1475 25.4729 27.5444 25.3095 27.837 25.0188C28.1296 24.728 28.294 24.3337 28.294 23.9225V7.79847C28.294 7.41006 28.1473 7.03668 27.8845 6.75145L29.224 5.45094C29.8283 6.08381 30.1663 6.92382 30.1663 7.79847V23.9225C30.1663 24.8271 29.8047 25.6947 29.1609 26.3343C28.5172 26.974 27.6441 27.3334 26.7337 27.3334H6.68486L8.60116 25.4729ZM6.16634 10.6667C6.90272 10.6667 7.49967 10.0697 7.49967 9.33335C7.49967 8.59697 6.90272 8.00002 6.16634 8.00002C5.42996 8.00002 4.83301 8.59697 4.83301 9.33335C4.83301 10.0697 5.42996 10.6667 6.16634 10.6667ZM30.2843 2.19228C30.6499 1.8433 30.6499 1.27749 30.2843 0.928512C29.9187 0.579533 29.326 0.579533 28.9604 0.928512L1.49941 27.1413C1.13381 27.4903 1.13381 28.0561 1.49941 28.405C1.86501 28.754 2.45776 28.754 2.82336 28.405L30.2843 2.19228Z" fill="white"/>
</svg>
