<svg width="40" height="26" viewBox="0 0 40 26" fill="none" xmlns="http://www.w3.org/2000/svg">
<path d="M3.36846 0H36.6315C38.4561 0 40 1.50525 40 3.2842V22.7158C40 24.4947 38.4561 26 36.6315 26H3.36846C1.54389 26 0 24.4947 0 22.7158V3.2842C0 1.50525 1.54389 0 3.36846 0Z" fill="#2A2C6B"/>
<path d="M36.5157 26H3.48433C1.5331 26 0 24.5104 0 22.6146V3.38541C0 1.48958 1.5331 0 3.48433 0H36.5157C38.4669 0 40 1.48958 40 3.38541V22.6146C40 24.5104 38.4669 26 36.5157 26ZM3.48433 0.27085C1.67248 0.27085 0.278678 1.625 0.278678 3.38541V22.6146C0.278678 24.375 1.67248 25.7292 3.48433 25.7292H36.5157C38.3275 25.7292 39.7213 24.375 39.7213 22.6146V3.38541C39.7213 1.625 38.3275 0.27085 36.5157 0.27085H3.48433Z" fill="black" fill-opacity="0.25"/>
<path d="M19.9312 9.31079L18.247 16.8371H16.2821L17.9663 9.31079H19.9312ZM28.2119 14.1003L29.1944 11.2266L29.7558 14.1003H28.2119ZM30.4575 16.8371H32.2821L30.7382 9.31079H29.054C28.633 9.31079 28.3523 9.58448 28.2119 9.85816L25.2646 16.8371H27.3698L27.7909 15.7424H30.3172L30.4575 16.8371ZM25.2646 14.374C25.2646 12.3213 22.4575 12.1845 22.4575 11.3634C22.4575 11.0897 22.7382 10.8161 23.2996 10.6792C24.0014 10.6792 24.7031 10.6792 25.2646 10.9529L25.5453 9.31079C24.9839 9.03711 24.2821 9.03711 23.7207 9.03711C21.7558 9.03711 20.3523 9.995 20.3523 11.5003C20.3523 12.595 21.3347 13.1424 22.0365 13.5529C22.7382 13.9634 23.0189 14.1003 23.0189 14.5108C23.0189 15.0582 22.4575 15.195 21.8961 15.195C21.1944 15.195 20.4926 15.0582 19.9312 14.6476L19.6505 16.4266C20.3523 16.7003 21.054 16.8371 21.8961 16.8371C23.861 16.8371 25.2646 15.8792 25.2646 14.374ZM17.1242 9.31079L13.8961 16.8371H11.7909L10.1067 10.8161C10.1067 10.5424 9.96632 10.2687 9.68562 10.1318C9.12421 9.85816 8.42246 9.58448 7.7207 9.44763V9.17395H11.0891C11.5102 9.17395 11.9312 9.44764 12.0716 9.995L12.9137 14.374L15.0189 9.31079H17.1242Z" fill="white"/>
<path d="M9.68562 10.122C8.98386 9.84827 8.42246 9.57459 7.7207 9.43775V9.16406H11.2295C11.6505 9.16406 12.0716 9.43775 12.2119 9.98512L12.9137 14.0904C12.3523 11.6272 9.68562 10.122 9.68562 10.122Z" fill="#F7B600"/>
</svg>
