<svg width="22" height="22" viewBox="0 0 22 22" fill="none" xmlns="http://www.w3.org/2000/svg">
<path fill-rule="evenodd" clip-rule="evenodd" d="M19 0.378452C18.3048 0.378452 17.6381 0.654626 17.1465 1.14622L7.64646 10.6462C7.58238 10.7103 7.53692 10.7906 7.51494 10.8785L6.51494 14.8785C6.47234 15.0489 6.52227 15.2291 6.64646 15.3533C6.77065 15.4775 6.95089 15.5274 7.12128 15.4848L11.1213 14.4848C11.2092 14.4629 11.2895 14.4174 11.3536 14.3533L20.8536 4.85333C21.3452 4.36173 21.6213 3.69499 21.6213 2.99977C21.6213 2.30455 21.3452 1.63781 20.8536 1.14622C20.362 0.654626 19.6952 0.378452 19 0.378452ZM17.8536 1.85333C18.1576 1.54927 18.57 1.37845 19 1.37845C19.43 1.37845 19.8424 1.54927 20.1465 1.85333C20.4505 2.15738 20.6213 2.56977 20.6213 2.99977C20.6213 3.42977 20.4505 3.84216 20.1465 4.14622L10.7444 13.5483L7.68719 14.3126L8.45149 11.2554L17.8536 1.85333Z" fill="white"/>
<path d="M3 2.49955C2.33696 2.49955 1.70107 2.76294 1.23223 3.23178C0.763392 3.70062 0.5 4.3365 0.5 4.99955V18.9995C0.5 19.6626 0.763392 20.2985 1.23223 20.7673C1.70107 21.2362 2.33696 21.4995 3 21.4995H17C17.663 21.4995 18.2989 21.2362 18.7678 20.7673C19.2366 20.2985 19.5 19.6626 19.5 18.9995V11.9995C19.5 11.7234 19.2761 11.4995 19 11.4995C18.7239 11.4995 18.5 11.7234 18.5 11.9995V18.9995C18.5 19.3974 18.342 19.7789 18.0607 20.0602C17.7794 20.3415 17.3978 20.4995 17 20.4995H3C2.60218 20.4995 2.22064 20.3415 1.93934 20.0602C1.65804 19.7789 1.5 19.3974 1.5 18.9995V4.99955C1.5 4.60172 1.65804 4.22019 1.93934 3.93889C2.22064 3.65758 2.60218 3.49955 3 3.49955H10C10.2761 3.49955 10.5 3.27569 10.5 2.99955C10.5 2.7234 10.2761 2.49955 10 2.49955H3Z" fill="white"/>
</svg>
