<svg width="16" height="20" viewBox="0 0 16 20" fill="none" xmlns="http://www.w3.org/2000/svg">
<path fill-rule="evenodd" clip-rule="evenodd" d="M3 1.5C2.60218 1.5 2.22064 1.65804 1.93934 1.93934C1.65804 2.22064 1.5 2.60218 1.5 3V18.0284L7.70938 13.5931C7.88323 13.469 8.11677 13.469 8.29062 13.5931L14.5 18.0284V3C14.5 2.60218 14.342 2.22064 14.0607 1.93934C13.7794 1.65804 13.3978 1.5 13 1.5H3ZM1.23223 1.23223C1.70107 0.763392 2.33696 0.5 3 0.5H13C13.663 0.5 14.2989 0.763392 14.7678 1.23223C15.2366 1.70107 15.5 2.33696 15.5 3V19C15.5 19.1873 15.3953 19.3589 15.2288 19.4446C15.0623 19.5303 14.8618 19.5157 14.7094 19.4069L8 14.6145L1.29062 19.4069C1.13821 19.5157 0.937745 19.5303 0.771209 19.4446C0.604674 19.3589 0.5 19.1873 0.5 19V3C0.5 2.33696 0.763392 1.70107 1.23223 1.23223Z" fill="white"/>
</svg>
