<svg width="125" height="24" viewBox="0 0 125 24" fill="none" xmlns="http://www.w3.org/2000/svg">
<path d="M6.97889 20.0898L9.00695 16.8081C9.0805 16.6891 9.20999 16.6168 9.3495 16.6168H14.8776C15.1551 16.6168 15.3496 16.3419 15.2582 16.079L11.8122 6.16732C11.6865 5.80572 11.177 5.80556 11.051 6.167L4.98512 23.5759C4.92855 23.7382 4.77592 23.8469 4.60457 23.8469H0.403483C0.125633 23.8469 -0.0689484 23.5715 0.0230889 23.3084L6.72364 4.15417C7.5451 1.80749 8.96713 0 11.4319 0C13.8967 0 15.3187 1.80749 16.1404 4.15417L22.841 23.3084C22.933 23.5715 22.7384 23.8469 22.4607 23.8469H18.2582C18.0874 23.8469 17.9352 23.7388 17.8782 23.5772L16.9622 20.9771C16.9052 20.8155 16.753 20.7075 16.5822 20.7075H7.32144C7.00544 20.7075 6.81236 20.3592 6.97889 20.0898Z" fill="white"/>
<path d="M41.6615 20.4167H37.2433C37.0713 20.4167 36.9184 20.3073 36.8623 20.1442L32.3144 6.9197C32.173 6.50895 31.5738 6.58022 31.532 7.01277L29.9445 23.476C29.9245 23.6834 29.7508 23.8415 29.5432 23.8415H25.303C25.0629 23.8415 24.876 23.6323 24.9023 23.3928L27.0018 4.24394C27.3178 1.5168 29.3719 0.153109 31.3627 0.153109C32.9111 0.153109 34.428 0.977696 35.0599 2.65834L39.071 14.4153C39.1954 14.78 39.7094 14.78 39.8338 14.4153L43.8449 2.65834C44.4769 0.977696 45.9936 0.153109 47.5421 0.153109C49.5328 0.153109 51.5869 1.5168 51.9029 4.24394L54.0025 23.3928C54.0288 23.6323 53.8419 23.8415 53.6018 23.8415H49.3617C49.1541 23.8415 48.9805 23.6834 48.9606 23.476L47.3728 7.0127C47.3311 6.58015 46.7318 6.50895 46.5905 6.9197L42.0425 20.1442C41.9864 20.3073 41.8335 20.4167 41.6615 20.4167Z" fill="white"/>
<path d="M73.9704 19.7453H62.5105C62.2879 19.7453 62.1073 19.5641 62.1073 19.3407V14.632C62.1073 14.4086 62.2879 14.2275 62.5105 14.2275H72.8592C73.0818 14.2275 73.2622 14.0464 73.2622 13.823V10.5413C73.2622 10.3179 73.0818 10.1368 72.8592 10.1368H62.5105C62.2879 10.1368 62.1073 9.95565 62.1073 9.73224V4.80153C62.1073 4.57812 62.2879 4.39696 62.5105 4.39696H73.9704C74.1182 4.39696 74.2542 4.31578 74.3247 4.18537L76.0993 0.903668C76.245 0.634117 76.0506 0.306217 75.7449 0.306217H61.823C59.358 0.306217 57.3672 2.17714 57.3672 4.46039V19.6818C57.3672 21.9651 59.358 23.8361 61.823 23.8361H75.7449C76.0506 23.8361 76.245 23.5081 76.0993 23.2385L74.3247 19.9568C74.2542 19.8264 74.1182 19.7453 73.9704 19.7453Z" fill="white"/>
<path d="M89.3059 4.30728L95.1047 18.0157C95.2763 18.4213 95.8788 18.2983 95.8788 17.8576V0.716151C95.8788 0.492741 96.0593 0.311668 96.282 0.311668H100.216C100.438 0.311668 100.619 0.492741 100.619 0.716151V19.8458C100.619 22.1291 98.312 24 95.8472 24C93.3824 24 92.1184 22.1291 91.1387 19.8458L85.34 6.13745C85.1684 5.73177 84.5658 5.85482 84.5658 6.29553V23.437C84.5658 23.6604 84.3854 23.8414 84.1627 23.8414H80.2289C80.0064 23.8414 79.8258 23.6604 79.8258 23.437V4.30728C79.8258 2.02411 82.1326 0.153109 84.5974 0.153109C87.0623 0.153109 88.3263 2.02411 89.3059 4.30728Z" fill="white"/>
<path fill-rule="evenodd" clip-rule="evenodd" d="M115.931 0.306217H109.547C107.083 0.306217 105.092 2.17721 105.092 4.46047V23.4316C105.092 23.6549 105.272 23.8361 105.495 23.8361H115.931C120.924 23.8361 125 19.8405 125 14.8935V9.24887C125 4.30191 120.924 0.306217 115.931 0.306217ZM115.931 4.39704C118.332 4.39704 120.26 6.58508 120.26 9.24887V14.8935C120.26 17.5572 118.332 19.7453 115.931 19.7453H110.235C110.012 19.7453 109.832 19.5642 109.832 19.3408V4.80153C109.832 4.57812 110.012 4.39704 110.235 4.39704H115.931Z" fill="white"/>
</svg>
