<svg width="16" height="16" viewBox="0 0 16 16" fill="none" xmlns="http://www.w3.org/2000/svg">
<path fill-rule="evenodd" clip-rule="evenodd" d="M8.41699 1.33329C8.41699 1.10317 8.23044 0.916626 8.00033 0.916626C7.77021 0.916626 7.58366 1.10317 7.58366 1.33329V7.58329H1.33366C1.10354 7.58329 0.916992 7.76984 0.916992 7.99996C0.916992 8.23008 1.10354 8.41663 1.33366 8.41663H7.58366V14.6666C7.58366 14.8967 7.77021 15.0833 8.00033 15.0833C8.23044 15.0833 8.41699 14.8967 8.41699 14.6666V8.41663H14.667C14.8971 8.41663 15.0837 8.23008 15.0837 7.99996C15.0837 7.76984 14.8971 7.58329 14.667 7.58329H8.41699V1.33329Z" fill="white"/>
</svg>
