<svg width="25" height="30" viewBox="0 0 25 30" fill="none" xmlns="http://www.w3.org/2000/svg">
<path fill-rule="evenodd" clip-rule="evenodd" d="M5.32201 7.51068V12.5036C5.32201 16.467 8.53593 19.6809 12.4993 19.6809C16.4627 19.6809 19.6766 16.467 19.6766 12.5036V10.0071V7.51068C19.6766 3.54729 16.4627 0.333374 12.4993 0.333374C8.53593 0.333374 5.32201 3.54729 5.32201 7.51068ZM12.4993 2.20571C9.56999 2.20571 7.19435 4.58136 7.19435 7.51068V9.07096H8.75463C9.27167 9.07096 9.69081 9.4901 9.69081 10.0071C9.69081 10.5242 9.27167 10.9433 8.75463 10.9433H7.19435V12.5036C7.19435 15.4329 9.56999 17.8085 12.4993 17.8085C15.4286 17.8085 17.8043 15.4329 17.8043 12.5036V10.9433H16.244C15.727 10.9433 15.3078 10.5242 15.3078 10.0071C15.3078 9.4901 15.727 9.07096 16.244 9.07096H17.8043V7.51068C17.8043 4.58136 15.4286 2.20571 12.4993 2.20571Z" fill="white"/>
<path d="M2.20144 12.5036C2.20144 11.9866 1.7823 11.5674 1.26527 11.5674C0.748239 11.5674 0.329102 11.9866 0.329102 12.5036C0.329102 18.9106 5.27869 24.1604 11.5631 24.6383V27.7944H6.25818C5.74115 27.7944 5.32201 28.2135 5.32201 28.7305C5.32201 29.2476 5.74115 29.6667 6.25818 29.6667H18.7405C19.2575 29.6667 19.6766 29.2476 19.6766 28.7305C19.6766 28.2135 19.2575 27.7944 18.7405 27.7944H13.4355V24.6383C19.7199 24.1604 24.6695 18.9106 24.6695 12.5036C24.6695 11.9866 24.2504 11.5674 23.7334 11.5674C23.2163 11.5674 22.7972 11.9866 22.7972 12.5036C22.7972 18.1915 18.1872 22.8015 12.4993 22.8015C6.81141 22.8015 2.20144 18.1915 2.20144 12.5036Z" fill="white"/>
</svg>
