<svg width="33" height="32" viewBox="0 0 33 32" fill="none" xmlns="http://www.w3.org/2000/svg">
<path d="M16.4993 1.33331C19.2389 1.33331 21.6205 2.86893 22.83 5.12623L21.4232 6.53296C20.639 4.58281 18.7296 3.20565 16.4993 3.20565C13.57 3.20565 11.1944 5.5813 11.1944 8.51062V10.0709H12.7546C13.2717 10.0709 13.6908 10.49 13.6908 11.0071C13.6908 11.5241 13.2717 11.9432 12.7546 11.9432H11.1944V13.5035C11.1944 14.4424 11.4384 15.3245 11.8665 16.0896L10.5047 17.4515C9.75717 16.3188 9.32201 14.9619 9.32201 13.5035V8.51062C9.32201 4.54723 12.5359 1.33331 16.4993 1.33331Z" fill="white"/>
<path d="M21.3188 15.7232C20.7901 16.869 19.8648 17.7943 18.7189 18.323L16.3624 20.6795C16.408 20.6804 16.4536 20.6808 16.4993 20.6808C20.4627 20.6808 23.6766 17.4669 23.6766 13.5035V13.3654L21.3188 15.7232Z" fill="white"/>
<path d="M6.20144 13.5035C6.20144 15.8255 6.96971 17.9678 8.26594 19.6902L6.93085 21.0253C5.30123 18.9551 4.3291 16.3429 4.3291 13.5035C4.3291 12.9865 4.74824 12.5674 5.26527 12.5674C5.7823 12.5674 6.20144 12.9865 6.20144 13.5035Z" fill="white"/>
<path d="M13.642 23.3999L12.1632 24.8788C13.2324 25.2865 14.3739 25.5478 15.5631 25.6383V28.7943H10.2582C9.74115 28.7943 9.32201 29.2134 9.32201 29.7305C9.32201 30.2475 9.74115 30.6666 10.2582 30.6666H22.7404C23.2575 30.6666 23.6766 30.2475 23.6766 29.7305C23.6766 29.2134 23.2575 28.7943 22.7404 28.7943H17.4355V25.6383C23.7199 25.1603 28.6695 19.9105 28.6695 13.5035C28.6695 12.9865 28.2504 12.5674 27.7334 12.5674C27.2163 12.5674 26.7972 12.9865 26.7972 13.5035C26.7972 19.1914 22.1872 23.8014 16.4993 23.8014C15.5079 23.8014 14.5492 23.6613 13.642 23.3999Z" fill="white"/>
<path d="M30.8921 2.93146C31.2577 2.56586 31.2577 1.97311 30.8921 1.60751C30.5265 1.24191 29.9338 1.24191 29.5682 1.60751L2.10721 29.0685C1.74161 29.4341 1.74161 30.0268 2.10721 30.3924C2.4728 30.758 3.06555 30.758 3.43115 30.3924L30.8921 2.93146Z" fill="white"/>
</svg>
