<svg width="12" height="12" viewBox="0 0 12 12" fill="none" xmlns="http://www.w3.org/2000/svg">
<path fill-rule="evenodd" clip-rule="evenodd" d="M6.00001 0.75C6.09516 0.75 6.18207 0.804018 6.22418 0.889344L7.71107 3.90162L11.0362 4.38763C11.1303 4.40139 11.2085 4.46739 11.2378 4.55789C11.2672 4.64839 11.2426 4.74771 11.1744 4.81409L8.76864 7.15734L9.33641 10.4677C9.3525 10.5615 9.31394 10.6563 9.23694 10.7123C9.15995 10.7682 9.05787 10.7756 8.97364 10.7313L6.00001 9.16746L3.02637 10.7313C2.94214 10.7756 2.84007 10.7682 2.76307 10.7123C2.68608 10.6563 2.64752 10.5615 2.66361 10.4677L3.23138 7.15734L0.825574 4.81409C0.75742 4.74771 0.732851 4.64839 0.762196 4.55789C0.79154 4.46739 0.86971 4.40139 0.96385 4.38763L4.28894 3.90162L5.77583 0.889344C5.81795 0.804018 5.90485 0.75 6.00001 0.75Z" fill="#FFD50B"/>
</svg>
