<svg width="16" height="16" viewBox="0 0 16 16" fill="none" xmlns="http://www.w3.org/2000/svg">
<path fill-rule="evenodd" clip-rule="evenodd" d="M0.916829 7.16659C0.916829 3.71481 3.71505 0.916585 7.16683 0.916585C10.6186 0.916585 13.4168 3.71481 13.4168 7.16659C13.4168 8.86366 12.7404 10.4028 11.6425 11.529C11.6206 11.5438 11.5998 11.5609 11.5804 11.5802C11.561 11.5996 11.5439 11.6205 11.5291 11.6424C10.4029 12.7402 8.86384 13.4166 7.16683 13.4166C3.71505 13.4166 0.916829 10.6184 0.916829 7.16659ZM11.8722 12.4613C10.6211 13.574 8.97288 14.2499 7.16683 14.2499C3.25481 14.2499 0.0834961 11.0786 0.0834961 7.16659C0.0834961 3.25457 3.25481 0.083252 7.16683 0.083252C11.0788 0.083252 14.2502 3.25457 14.2502 7.16659C14.2502 8.97269 13.5742 10.6209 12.4615 11.8721L15.7946 15.2053C15.9573 15.368 15.9573 15.6318 15.7946 15.7945C15.6319 15.9572 15.3681 15.9572 15.2054 15.7945L11.8722 12.4613Z" fill="white"/>
</svg>
