<svg width="10" height="12" viewBox="0 0 10 12" fill="none" xmlns="http://www.w3.org/2000/svg">
<path fill-rule="evenodd" clip-rule="evenodd" d="M5.59955 0.770689C5.70135 0.814881 5.76184 0.920898 5.74807 1.03102L5.2832 4.75001H9.5C9.59701 4.75001 9.68526 4.80613 9.7264 4.89398C9.76754 4.98182 9.75416 5.08554 9.69206 5.16006L4.69206 11.1601C4.62101 11.2453 4.50226 11.2735 4.40045 11.2293C4.29865 11.1851 4.23817 11.0791 4.25193 10.969L4.71681 7.25001H0.500003C0.402999 7.25001 0.314751 7.1939 0.273606 7.10605C0.232461 7.01821 0.245847 6.91449 0.307948 6.83997L5.30795 0.839968C5.379 0.754709 5.49775 0.726496 5.59955 0.770689Z" fill="#FFD50B"/>
</svg>
