<svg width="25" height="26" viewBox="0 0 25 26" fill="none" xmlns="http://www.w3.org/2000/svg">
<path fill-rule="evenodd" clip-rule="evenodd" d="M7.53856 13.5422C7.15568 13.2157 6.80742 12.8463 6.49917 12.4517C5.41459 11.0632 4.73054 9.25057 4.73054 7.53906V6.44686C4.73054 2.97891 7.53418 0.166748 10.9916 0.166748C14.4491 0.166748 17.2527 2.97891 17.2527 6.44686V7.53906C17.2527 9.25057 16.5687 11.0632 15.4841 12.4517C14.4019 13.837 12.8268 14.9114 10.9916 14.9114C8.03399 14.9114 5.39822 15.5828 3.65798 16.1713C2.67176 16.5061 2.00833 17.4409 2.00833 18.496V22.0106H12.0801C12.5311 22.0106 12.8972 22.3774 12.8972 22.8298C12.8972 23.2822 12.5315 23.6489 12.0805 23.6489H1.19216L1.19166 22.8298C1.19166 23.6489 1.19216 23.6489 1.19216 23.6489C0.741128 23.6489 0.375 23.2822 0.375 22.8298V18.496C0.375 16.7486 1.47615 15.1821 3.13572 14.619C4.27738 14.2329 5.79259 13.8091 7.53856 13.5422ZM6.36386 6.44686C6.36386 3.88372 8.43624 1.80504 10.9916 1.80504C13.547 1.80504 15.6194 3.88372 15.6194 6.44686V7.53906C15.6194 8.84309 15.0844 10.307 14.1984 11.4413C13.3099 12.5787 12.1628 13.2731 10.9916 13.2731C9.82041 13.2731 8.67333 12.5787 7.78485 11.4413C6.89882 10.307 6.36386 8.84309 6.36386 7.53906V6.44686Z" fill="white"/>
<path fill-rule="evenodd" clip-rule="evenodd" d="M22.0206 21.8119C22.4481 21.1644 22.6971 20.388 22.6971 19.5532C22.6971 17.2912 20.869 15.4575 18.6138 15.4575C16.3587 15.4575 14.5305 17.2912 14.5305 19.5532C14.5305 21.8152 16.3587 23.6489 18.6138 23.6489C19.4461 23.6489 20.2202 23.3992 20.8657 22.9703L23.4809 25.5935C23.7998 25.9134 24.3169 25.9134 24.6358 25.5935C24.9547 25.2736 24.9547 24.7549 24.6358 24.435L22.0206 21.8119ZM20.3314 21.3056C19.8893 21.7416 19.2828 22.0106 18.6138 22.0106C17.2607 22.0106 16.1638 20.9104 16.1638 19.5532C16.1638 18.196 17.2607 17.0958 18.6138 17.0958C19.9669 17.0958 21.0638 18.196 21.0638 19.5532C21.0638 20.2243 20.7956 20.8325 20.3609 21.276C20.3559 21.2808 20.3509 21.2857 20.346 21.2906C20.341 21.2956 20.3362 21.3006 20.3314 21.3056Z" fill="white"/>
</svg>
