<svg width="14" height="14" viewBox="0 0 14 14" fill="none" xmlns="http://www.w3.org/2000/svg">
<path d="M12.3102 4.68059C12.3255 4.56459 12.3335 4.44859 12.3335 4.33325C12.3335 2.74725 10.9048 1.47459 9.3195 1.68992C8.8575 0.867918 7.9775 0.333252 7.00016 0.333252C6.02283 0.333252 5.14283 0.867918 4.68083 1.68992C3.09216 1.47459 1.66683 2.74725 1.66683 4.33325C1.66683 4.44859 1.67483 4.56459 1.69016 4.68059C0.868163 5.14325 0.333496 6.02325 0.333496 6.99992C0.333496 7.97659 0.868163 8.85659 1.69016 9.31925C1.67478 9.43439 1.66699 9.55042 1.66683 9.66659C1.66683 11.2526 3.09216 12.5219 4.68083 12.3099C5.14283 13.1319 6.02283 13.6666 7.00016 13.6666C7.9775 13.6666 8.8575 13.1319 9.3195 12.3099C10.9048 12.5219 12.3335 11.2526 12.3335 9.66659C12.3335 9.55125 12.3255 9.43525 12.3102 9.31925C13.1322 8.85659 13.6668 7.97659 13.6668 6.99992C13.6668 6.02325 13.1322 5.14325 12.3102 4.68059ZM6.3035 9.94392L3.85883 7.46792L4.80816 6.53192L6.31283 8.05592L9.1975 5.19325L10.1362 6.13992L6.3035 9.94392Z" fill="#0066FF"/>
</svg>
