<svg width="105" height="48" viewBox="0 0 105 48" fill="none" xmlns="http://www.w3.org/2000/svg">
<path d="M40.332 30.587C38.8171 28.5347 37.9998 26.0509 38 23.5C37.9998 20.9491 38.8171 18.4653 40.332 16.413M31.4 35.217C29.178 31.713 27.9987 27.6491 28 23.5C27.9987 19.3509 29.178 15.287 31.4 11.783M22.514 39.826C19.561 34.8922 18.001 29.25 18 23.5C18.001 17.75 19.561 12.1078 22.514 7.174M13.625 44.5C9.93944 38.115 7.99944 30.8724 8.00003 23.5C7.99964 16.1482 9.94002 8.92657 13.625 2.565" stroke="#5843F4" stroke-opacity="0.5" stroke-width="2" stroke-linecap="round" stroke-linejoin="round"/>
<circle cx="52.5" cy="24" r="4" fill="#5843F4"/>
<path d="M64.668 17.413C66.1829 19.4653 67.0002 21.9491 67 24.5C67.0002 27.0509 66.1829 29.5347 64.668 31.587M73.6 12.783C75.822 16.287 77.0013 20.3509 77 24.5C77.0013 28.6491 75.822 32.713 73.6 36.217M82.486 8.174C85.439 13.1078 86.999 18.75 87 24.5C86.999 30.25 85.439 35.8922 82.486 40.826M91.375 3.5C95.0606 9.88499 97.0006 17.1276 97 24.5C97.0004 31.8518 95.06 39.0734 91.375 45.435" stroke="#5843F4" stroke-opacity="0.5" stroke-width="2" stroke-linecap="round" stroke-linejoin="round"/>
</svg>
