<svg width="29" height="28" viewBox="0 0 29 28" fill="none" xmlns="http://www.w3.org/2000/svg">
<path fill-rule="evenodd" clip-rule="evenodd" d="M10.5065 1.16675C10.0541 1.16675 9.68738 1.53349 9.68738 1.9859V5.53554H2.86114C2.40874 5.53554 2.04199 5.90229 2.04199 6.35469V17.2767C2.04199 17.7291 2.40874 18.0958 2.86114 18.0958H10.7796V19.4611C10.7796 19.9135 11.1463 20.2802 11.5987 20.2802H18.1519C18.6043 20.2802 18.9711 19.9135 18.9711 19.4611V18.0958H26.8895C27.3419 18.0958 27.7087 17.7291 27.7087 17.2767V6.35469C27.7087 5.90229 27.3419 5.53554 26.8895 5.53554H20.0633V1.9859C20.0633 1.53349 19.6965 1.16675 19.2441 1.16675H10.5065ZM18.9711 16.4575H26.0704V7.17384H3.68029V16.4575H10.7796V15.0923C10.7796 14.6399 11.1463 14.2731 11.5987 14.2731H18.1519C18.6043 14.2731 18.9711 14.6399 18.9711 15.0923V16.4575ZM12.4179 18.6419H17.3328V15.9114H12.4179V18.6419ZM18.425 5.53554V2.80505H11.3257V5.53554H18.425Z" fill="white"/>
<path d="M3.95334 19.7341C4.40574 19.7341 4.77249 20.1009 4.77249 20.5533V25.1951H24.9782V20.5533C24.9782 20.1009 25.3449 19.7341 25.7973 19.7341C26.2497 19.7341 26.6165 20.1009 26.6165 20.5533V26.0143C26.6165 26.4667 26.2497 26.8334 25.7973 26.8334H3.95334C3.50094 26.8334 3.13419 26.4667 3.13419 26.0143V20.5533C3.13419 20.1009 3.50094 19.7341 3.95334 19.7341Z" fill="white"/>
</svg>
